<?xml version="1.0" encoding="UTF-8"?>
<svg xmlns="http://www.w3.org/2000/svg" viewBox="0 0 128 128" width="128" height="128">
  <defs>
    <linearGradient id="body" x1="0" y1="0" x2="1" y2="1">
      <stop offset="0" stop-color="#f2c14e"/>
      <stop offset="1" stop-color="#e08e1a"/>
    </linearGradient>
  </defs>
  <!-- The page. -->
  <rect x="14" y="10" width="70" height="108" rx="8" fill="#f7f4ee"/>
  <g fill="#c9c2b6">
    <rect x="26" y="30" width="46" height="5" rx="2.5"/>
    <rect x="26" y="46" width="34" height="5" rx="2.5"/>
    <rect x="26" y="62" width="42" height="5" rx="2.5"/>
    <rect x="26" y="78" width="28" height="5" rx="2.5"/>
  </g>
  <!-- The pencil, laid across it. -->
  <g transform="rotate(38 84 66)">
    <rect x="74" y="6" width="22" height="86" rx="4" fill="url(#body)"/>
    <rect x="74" y="6" width="7" height="86" fill="#ffffff" opacity="0.25"/>
    <path d="M74 92 L96 92 L85 118 Z" fill="#f0e6d2"/>
    <path d="M80.5 107 L89.5 107 L85 118 Z" fill="#2f2a24"/>
    <rect x="74" y="0" width="22" height="8" rx="3" fill="#d9738a"/>
  </g>
</svg>
